<?xml version="1.0" encoding="utf-8"?>
<!-- Generator: Adobe Illustrator 21.0.0, SVG Export Plug-In . SVG Version: 6.00 Build 0)  -->
<svg version="1.1" id="图层_1" xmlns="http://www.w3.org/2000/svg" xmlns:xlink="http://www.w3.org/1999/xlink" x="0px" y="0px"
	 viewBox="0 0 48 48" style="enable-background:new 0 0 48 48;" xml:space="preserve">
<style type="text/css">
	.st0{fill:#FE6602;}
	.st1{fill:#FFFFFF;}
</style>
<g>
	<path class="st0" d="M24,0.5C11,0.5,0.5,11,0.5,24S11,47.5,24,47.5S47.5,37,47.5,24S37,0.5,24,0.5z M38.8,22.2
		c-0.2,0.3-0.5,0.5-0.8,0.5c-0.2,0-0.4-0.1-0.5-0.2L35,20.9v12.6c0,1.4-1.1,2.5-2.5,2.5H28h-8h-4.5c-1.4,0-2.5-1.1-2.5-2.5V20.9
		l-2.4,1.6c-0.2,0.1-0.4,0.2-0.5,0.2c-0.3,0-0.7-0.2-0.8-0.5c-0.3-0.5-0.2-1.1,0.3-1.4l13.7-8.6c0.5-0.3,1.1-0.3,1.6,0l13.7,8.6
		C39,21.1,39.1,21.7,38.8,22.2z"/>
	<path class="st0" d="M23.2,14.4L15,19.7v13.8c0,0.3,0.2,0.5,0.5,0.5H20v-7.5c0-1.4,1.1-2.5,2.5-2.5h3c1.4,0,2.5,1.1,2.5,2.5V34h4.5
		c0.3,0,0.5-0.2,0.5-0.5V19.6l-8.2-5.2C24.3,14.1,23.7,14.1,23.2,14.4z"/>
	<path class="st0" d="M25.5,26h-3c-0.3,0-0.5,0.2-0.5,0.5V34h4v-7.5C26,26.2,25.8,26,25.5,26z"/>
	<path class="st1" d="M38.5,20.8l-13.7-8.6c-0.5-0.3-1.1-0.3-1.6,0L9.5,20.8c-0.5,0.3-0.6,0.9-0.3,1.4c0.2,0.3,0.5,0.5,0.8,0.5
		c0.2,0,0.4-0.1,0.5-0.2l2.4-1.6v12.6c0,1.4,1.1,2.5,2.5,2.5H20h8h4.5c1.4,0,2.5-1.1,2.5-2.5V20.9l2.5,1.6c0.2,0.1,0.4,0.2,0.5,0.2
		c0.3,0,0.7-0.2,0.8-0.5C39.1,21.7,39,21.1,38.5,20.8z M26,34h-4v-7.5c0-0.3,0.2-0.5,0.5-0.5h3c0.3,0,0.5,0.2,0.5,0.5V34z M33,33.5
		c0,0.3-0.2,0.5-0.5,0.5H28v-7.5c0-1.4-1.1-2.5-2.5-2.5h-3c-1.4,0-2.5,1.1-2.5,2.5V34h-4.5c-0.3,0-0.5-0.2-0.5-0.5V19.7l8.2-5.2
		c0.5-0.3,1.1-0.3,1.6,0l8.2,5.2V33.5z"/>
</g>
</svg>
