<?xml version="1.0" encoding="utf-8"?>
<!-- Generator: Adobe Illustrator 21.0.0, SVG Export Plug-In . SVG Version: 6.00 Build 0)  -->
<svg version="1.1" id="图层_1" xmlns="http://www.w3.org/2000/svg" xmlns:xlink="http://www.w3.org/1999/xlink" x="0px" y="0px"
	 viewBox="0 0 48 48" style="enable-background:new 0 0 48 48;" xml:space="preserve">
<style type="text/css">
	.st0{fill:#FE6602;}
	.st1{fill:#FFFFFF;}
</style>
<path class="st0" d="M27.2,29.7c-0.6,0.3-1.4,0.6-2.3,0.9l-0.3,0.1c-0.4,0.1-1.5,0.5-4.4-2.2c-0.7-0.6-4.1-3.9-3.6-5.7
	c0.2-0.6,1.1-2.9,1.3-3.3c0-0.1,0.1-0.2,0.1-0.3c-0.4-0.8-1.1-1.9-1.9-3.1l-0.6-1C15.4,15,15.1,15,14.9,15c-0.2,0-0.3,0-0.4,0.1
	L14,15.4c-1.5,1-3.2,2.2-3.3,3.9c-0.3,2.8,2.1,5.6,5.8,9.8l0.6,0.7c3.9,4.5,8.2,7.3,11,7.3c1.5,0,3.2-2.4,3.5-3.2
	c0.2-0.4,0.1-0.9,0-1C30.4,32,28.4,30.4,27.2,29.7z"/>
<path class="st0" d="M24,0.5C11,0.5,0.5,11,0.5,24S11,47.5,24,47.5S47.5,37,47.5,24S37,0.5,24,0.5z M33.4,34.6
	c-0.3,0.7-2.4,4.4-5.3,4.4c-3.4,0-8.2-3.1-12.5-8L15,30.4c-4-4.6-6.6-7.6-6.3-11.3c0.3-2.7,2.5-4.2,4.2-5.4l0.4-0.3
	c0.6-0.4,1.4-0.5,2.3-0.4c0.7,0.1,1.3,0.5,1.6,1l0.6,1c0.8,1.3,1.6,2.5,2,3.3c0.4,0.7,0.1,1.6,0,1.9c-0.4,1-1,2.5-1.2,3
	c0.2,1.3,4.3,5.4,5.5,5.5l0.2-0.1c0.5-0.2,1.5-0.5,1.9-0.7c0.6-0.4,1.4-0.3,2.1,0.1c1.1,0.7,3.1,2.2,4.5,3.3
	C33.8,32.1,33.9,33.6,33.4,34.6z"/>
<g>
	<path class="st1" d="M23.1,17.8c3.8,0,6.8,3.1,6.8,6.8c0,0.4,0.3,0.7,0.7,0.7c0.4,0,0.7-0.3,0.7-0.7c0-4.5-3.7-8.2-8.2-8.2
		c-0.4,0-0.7,0.3-0.7,0.7C22.4,17.5,22.7,17.8,23.1,17.8z"/>
	<path class="st1" d="M23.6,12.5c-0.4,0-0.7,0.3-0.7,0.7c0,0.4,0.3,0.7,0.7,0.7c5.6,0,10.3,4.6,10.3,10.3c0,0.4,0.3,0.7,0.7,0.7
		c0.4,0,0.7-0.3,0.7-0.7C35.3,17.8,30.1,12.5,23.6,12.5z"/>
</g>
<path class="st1" d="M32.8,31.3c-1.4-1.1-3.4-2.6-4.5-3.3c-0.6-0.4-1.4-0.4-2.1-0.1c-0.4,0.2-1.4,0.5-1.9,0.7l-0.2,0.1
	c-1.2-0.1-5.3-4.2-5.5-5.5c0.1-0.5,0.7-2,1.2-3c0.1-0.3,0.4-1.2,0-1.9c-0.4-0.8-1.2-2-2-3.3l-0.6-1c-0.3-0.5-0.9-0.9-1.6-1
	c-0.8-0.2-1.7,0-2.3,0.4l-0.4,0.3c-1.7,1.1-4,2.7-4.2,5.4C8.4,22.8,11,25.8,15,30.4l0.6,0.7c4.3,4.9,9.1,8,12.5,8
	c2.9,0,5.1-3.7,5.3-4.4C33.9,33.6,33.8,32.1,32.8,31.3z M31.6,33.9c-0.3,0.7-2,3.2-3.5,3.2c-2.8,0-7.1-2.9-11-7.3L16.5,29
	c-3.7-4.2-6.1-7-5.8-9.8c0.2-1.7,1.9-2.9,3.3-3.9l0.4-0.3c0.1-0.1,0.3-0.1,0.4-0.1c0.2,0,0.5,0.1,0.6,0.1l0.6,1
	c0.8,1.2,1.5,2.3,1.9,3.1c0,0.1,0,0.2-0.1,0.3c-0.2,0.4-1.1,2.7-1.3,3.3c-0.5,1.8,2.9,5,3.6,5.7c2.9,2.7,4.1,2.3,4.4,2.2l0.3-0.1
	c0.9-0.3,1.7-0.6,2.3-0.9c1.1,0.7,3.2,2.3,4.3,3.2C31.7,33,31.8,33.5,31.6,33.9z"/>
</svg>
